Music_Mewtwo01:
	channel_count 4
	channel 1, Music_Mewtwo01_Ch1
	channel 2, Music_Mewtwo01_Ch2
	channel 3, Music_Mewtwo01_Ch3
	channel 4, Music_Mewtwo01_Ch4

Music_Mewtwo01_Ch1:
	tempo 256
	volume 7, 7
	note_type 6, 15, 8
	duty_cycle 2
	octave 2
	note B_, 1
	note A#, 1
	note A_, 1
	note G#, 1
	note A#, 1
	note A_, 1
	note G#, 1
	note G_, 1
	note A_, 1
	note G#, 1
	note G_, 1
	note F#, 1
	note G#, 1
	note G_, 1
	note F#, 1
	note F_, 1
	note_type 3, 15, 8
	volume_envelope 14, 8
	note F#, 1
	note F_, 1
	volume_envelope 13, 8
	note E_, 1
	note D#, 1
	volume_envelope 12, 8
	note G_, 1
	note F#, 1
	volume_envelope 11, 8
	note F_, 1
	note E_, 1
	volume_envelope 10, 8
	note F#, 1
	note F_, 1
	volume_envelope 9, 8
	note E_, 1
	note D#, 1
	volume_envelope 8, 8
	note G_, 1
	note F#, 1
	volume_envelope 7, 8
	note F_, 1
	note E_, 1
	volume_envelope 6, 8
	note F#, 1
	note F_, 1
	volume_envelope 5, 8
	note E_, 1
	note D#, 1
	volume_envelope 7, 8
	note G_, 1
	note F#, 1
	volume_envelope 9, 8
	note F_, 1
	note E_, 1
	volume_envelope 11, 8
	note F#, 1
	note F_, 1
	volume_envelope 13, 8
	note E_, 1
	note D#, 1
	volume_envelope 15, 8
	note G_, 1
	note F#, 1
	note F_, 1
	note E_, 1
	note_type 12, 15, 8
	octave 1
	note E_, 1
	note D_, 1
	note E_, 1
	note D_, 1
	note E_, 1
	note D_, 1
	note E_, 1
	note D_, 1
	note E_, 1
	note D_, 1
	note E_, 1
	note D_, 1
	note E_, 1
	note D_, 1
	note E_, 1
	note D_, 1
	note E_, 1
	note D_, 1
	note E_, 1
	note D_, 1
	note E_, 1
	note D_, 1
	note E_, 1
	note D_, 1
	note E_, 1
	note D_, 1
	note E_, 1
	note D_, 1
	note E_, 1
	note D_, 1
	note E_, 1
	note E_, 1
	note E_, 1
	note D_, 1
	note E_, 1
	note D_, 1
	note E_, 1
	note D_, 1
	note E_, 1
	note E_, 1
	note E_, 1
	note D_, 1
	note E_, 1
	note D_, 1
	note E_, 1
	note D_, 1
	note E_, 1
	note D_, 1
	note E_, 1
	note D_, 1
	octave 2
	note_type 3, 15, 8
	note D_, 1
	note E_, 1
	note F#, 1
	note G_, 1
	note A_, 1
	note B_, 1
	octave 3
	note C_, 1
	note D_, 1
	note_type 12, 15, 8
	note E_, 1
	octave 2
	note E_, 1
	octave 3
	note E_, 1
	octave 2
	note E_, 1
	octave 3
	note E_, 1
	octave 2
	note E_, 1
	octave 3
	note_type 3, 15, 8
	note D_, 1
	note E_, 1
	note F#, 1
	note G_, 1
	note A_, 1
	note B_, 1
	octave 4
	note C_, 1
	note D_, 1
	note_type 12, 15, 8
	note E_, 1
	octave 3
	note E_, 1
	octave 4
	note E_, 1
	octave 3
	note E_, 1
	octave 8
.mainLoop:
	duty_cycle 0
	octave 1
	note A_, 1
	note_type 6, 15, 8
	note A_, 1
	note_type 12, 15, 8
	note A_, 1
	note_type 6, 15, 8
	note A_, 1
	note A_, 1
	note_type 12, 15, 8
	note A_, 1
	note_type 6, 15, 8
	note A_, 1
	note_type 12, 15, 8
	octave 2
	note E_, 1
	octave 1
	note_type 6, 15, 8
	note B_, 1
	note_type 12, 15, 8
	note A_, 1
	note_type 6, 15, 8
	rest 1
	note_type 12, 15, 8
	note A_, 1
	note_type 6, 15, 8
	note A_, 1
	note_type 12, 15, 8
	note A_, 1
	note_type 6, 15, 8
	note A_, 1
	note A_, 1
	note_type 12, 15, 8
	note A_, 1
	note_type 6, 15, 8
	note A_, 1
	note_type 12, 15, 8
	octave 2
	note E_, 1
	note_type 6, 15, 8
	note A_, 1
	note G_, 1
	note F_, 1
	note E_, 1
	note_type 12, 15, 8
	note F_, 1
	note_type 6, 15, 8
	note F_, 1
	note_type 12, 15, 8
	note F_, 1
	note_type 6, 15, 8
	note F_, 1
	note F_, 1
	note_type 12, 15, 8
	note F_, 1
	note_type 6, 15, 8
	octave 1
	note F_, 1
	note F_, 1
	note F_, 1
	octave 2
	note C_, 1
	note_type 12, 15, 8
	note C_, 1
	note_type 6, 15, 8
	note C_, 1
	note_type 12, 15, 8
	note F_, 1
	note_type 6, 15, 8
	note F_, 1
	note_type 12, 15, 8
	note F_, 1
	note_type 6, 15, 8
	note F_, 1
	note F_, 1
	note_type 12, 15, 8
	note F_, 1
	octave 1
	note_type 6, 15, 8
	note F_, 1
	note F_, 1
	octave 2
	note C_, 1
	note F_, 1
	note E_, 1
	note D_, 1
	note C_, 1
	note_type 12, 15, 8
	octave 1
	note A#, 1
	note_type 6, 15, 8
	note A#, 1
	note_type 12, 15, 8
	note A#, 1
	note_type 6, 15, 8
	note A#, 1
	note A#, 1
	note_type 12, 15, 8
	note A#, 1
	note_type 6, 15, 8
	note A#, 1
	note A_, 1
	note A#, 1
	octave 2
	note D_, 1
	note_type 12, 15, 8
	note C_, 1
	note_type 6, 15, 8
	octave 1
	note G_, 1
	note_type 12, 15, 8
	note A#, 1
	note_type 6, 15, 8
	note A#, 1
	note_type 12, 15, 8
	note A#, 1
	note_type 6, 15, 8
	note A#, 1
	note A#, 1
	note_type 12, 15, 8
	note A#, 1
	note_type 6, 15, 8
	note A#, 1
	note A_, 1
	note A#, 1
	octave 2
	note D_, 1
	note C_, 1
	octave 1
	note A#, 1
	note G_, 1
	note_type 12, 15, 8
	note A_, 1
	note_type 6, 15, 8
	note A_, 1
	note_type 12, 15, 8
	note A_, 1
	note_type 6, 15, 8
	note A_, 1
	note A_, 1
	note_type 12, 15, 8
	note A_, 1
	note_type 6, 15, 8
	note A_, 1
	note_type 12, 15, 8
	octave 2
	note E_, 1
	note_type 6, 15, 8
	octave 1
	note A_, 1
	note_type 12, 15, 8
	note E_, 1
	note_type 6, 15, 8
	note G_, 1
	note_type 12, 15, 8
	note A_, 1
	note_type 6, 15, 8
	note A_, 1
	note_type 12, 15, 8
	note A_, 1
	note_type 6, 15, 8
	note A_, 1
	note A_, 1
	note_type 12, 15, 8
	note A_, 1
	note_type 6, 15, 8
	note A_, 1
	note_type 12, 15, 8
	octave 2
	note E_, 1
	octave 1
	note_type 6, 15, 8
	note A_, 1
	note_type 12, 15, 8
	note E_, 1
	note_type 6, 15, 8
	note G_, 1
	note_type 12, 15, 8
	note F_, 1
	note_type 6, 15, 8
	note F_, 1
	note_type 12, 15, 8
	note F_, 1
	note_type 6, 15, 8
	note F_, 1
	note F_, 1
	note_type 12, 15, 8
	note F_, 1
	note_type 6, 15, 8
	note F_, 1
	note F_, 1
	note F_, 1
	octave 2
	note C_, 1
	note_type 12, 15, 8
	note C_, 1
	note_type 6, 15, 8
	note C_, 1
	note_type 12, 15, 8
	octave 1
	note F_, 1
	note_type 6, 15, 8
	note F_, 1
	note_type 12, 15, 8
	note F_, 1
	note_type 6, 15, 8
	note F_, 1
	note F_, 1
	note_type 12, 15, 8
	note F_, 1
	octave 2
	note_type 6, 15, 8
	note C_, 1
	octave 1
	note A_, 1
	octave 2
	note C_, 1
	note F_, 1
	note E_, 1
	note D_, 1
	note C_, 1
	note_type 12, 15, 8
	octave 1
	note A#, 1
	note_type 6, 15, 8
	note A#, 1
	note_type 12, 15, 8
	note A#, 1
	note_type 6, 15, 8
	note A#, 1
	note A#, 1
	note_type 12, 15, 8
	note A#, 1
	note_type 6, 15, 8
	note A#, 1
	note A#, 1
	note A#, 1
	octave 2
	note F_, 1
	octave 1
	note_type 12, 15, 8
	note A#, 1
	note_type 6, 15, 8
	note A_, 1
	note_type 12, 15, 8
	note A#, 1
	note_type 6, 15, 8
	note A#, 1
	note_type 12, 15, 8
	note A#, 1
	note_type 6, 15, 8
	note A#, 1
	note A#, 1
	note_type 12, 15, 8
	note A#, 1
	note_type 6, 15, 8
	note A#, 1
	note A#, 1
	note A#, 1
	octave 2
	note D_, 1
	note C_, 1
	octave 1
	note A#, 1
	note G_, 1
	note_type 12, 15, 8
	note A_, 1
	note_type 6, 15, 8
	note A_, 1
	note_type 12, 15, 8
	note A_, 1
	note_type 6, 15, 8
	note A_, 1
	note A_, 1
	note_type 12, 15, 8
	note A_, 1
	note_type 6, 15, 8
	note A_, 1
	note_type 12, 15, 8
	octave 2
	note E_, 1
	note_type 6, 15, 8
	octave 1
	note A_, 1
	note_type 12, 15, 8
	note G_, 1
	note_type 6, 15, 8
	note E_, 1
	note_type 12, 15, 8
	note A_, 1
	note_type 6, 15, 8
	note A_, 1
	note_type 12, 15, 8
	note A_, 1
	note_type 6, 15, 8
	note A_, 1
	note A_, 1
	note_type 12, 15, 8
	note A_, 1
	note_type 6, 15, 8
	note A_, 1
	note_type 12, 15, 8
	octave 2
	note E_, 1
	octave 1
	note_type 6, 15, 8
	note A_, 1
	note_type 12, 15, 8
	note G_, 1
	note_type 6, 15, 8
	note E_, 1
	note_type 12, 15, 8
	note A_, 1
	note_type 6, 15, 8
	note A_, 1
	note_type 12, 15, 8
	note A_, 1
	note_type 6, 15, 8
	note A_, 1
	note A_, 1
	note_type 12, 15, 8
	note A_, 1
	note_type 6, 15, 8
	note A_, 1
	note_type 12, 15, 8
	octave 2
	note E_, 1
	note_type 6, 15, 8
	octave 1
	note A_, 1
	note_type 12, 15, 8
	note G_, 1
	note_type 6, 15, 8
	note F_, 1
	note_type 12, 15, 8
	note A_, 1
	note_type 6, 15, 8
	note A_, 1
	note_type 12, 15, 8
	note A_, 1
	note_type 6, 15, 8
	note A_, 1
	note_type 12, 15, 8
	note A_, 1
	note_type 6, 15, 8
	note A#, 1
	note A#, 1
	note_type 12, 15, 8
	note A#, 1
	note_type 6, 15, 8
	note A#, 1
	note_type 12, 15, 8
	note A#, 1
	note_type 6, 15, 8
	note A#, 1
	note_type 12, 15, 8
	duty_cycle 1
	volume_envelope 12, 8
	note E_, 1
	note A_, 1
	note G_, 1
	note E_, 1
	note A_, 1
	note G_, 1
	note E_, 1
	note A_, 1
	note G_, 1
	note E_, 1
	note A_, 1
	note G_, 1
	note E_, 1
	note A_, 1
	note G_, 1
	note E_, 1
	note A_, 1
	note G_, 1
	note E_, 1
	note A_, 1
	note G_, 1
	note E_, 1
	note A_, 1
	note G_, 1
	note E_, 1
	note A_, 1
	note G_, 1
	note E_, 1
	note A_, 1
	note G_, 1
	note E_, 1
	note A_, 1
	note A_, 1
	note G_, 1
	note E_, 1
	note A_, 1
	note G_, 1
	note E_, 1
	note A_, 1
	note G_, 1
	note E_, 1
	note A_, 1
	note G_, 1
	note E_, 1
	note A_, 1
	note G_, 1
	note E_, 1
	note G_, 1
	note A#, 1
	note G#, 1
	note F_, 1
	note A#, 1
	note G#, 1
	note F_, 1
	note A#, 1
	note G#, 1
	note F_, 1
	note A#, 1
	note G#, 1
	note F_, 1
	note A#, 1
	note G#, 1
	note F_, 1
	note A#, 1
	note A_, 1
	note G_, 1
	note E_, 1
	note A_, 1
	note G_, 1
	note E_, 1
	note A_, 1
	note G_, 1
	note E_, 1
	note A_, 1
	note G_, 1
	note E_, 1
	note A_, 1
	note G_, 1
	note E_, 1
	note A_, 1
	note F_, 1
	octave 2
	note C_, 1
	octave 1
	note A#, 1
	note F_, 1
	octave 2
	note C_, 1
	octave 1
	note A#, 1
	note F_, 1
	octave 2
	note C_, 1
	octave 1
	note A#, 1
	note F_, 1
	octave 2
	note C_, 1
	octave 1
	note A#, 1
	note F_, 1
	octave 2
	note C_, 1
	octave 1
	note A#, 1
	note F_, 1
	octave 2
	note D#, 1
	note C_, 1
	octave 1
	note A#, 1
	octave 2
	note D#, 1
	note C_, 1
	octave 1
	note A#, 1
	octave 2
	note D#, 1
	note C_, 1
	octave 1
	note A#, 1
	octave 2
	note D#, 1
	note C_, 1
	octave 1
	note A#, 1
	octave 2
	note D#, 1
	note C_, 1
	octave 1
	note A#, 1
	note G_, 1
	note F_, 1
	octave 2
	note C_, 1
	octave 1
	note A#, 1
	note F_, 1
	octave 2
	note C_, 1
	octave 1
	note A#, 1
	note F_, 1
	octave 2
	note C_, 1
	octave 1
	note A#, 1
	note F_, 1
	octave 2
	note C_, 1
	octave 1
	note A#, 1
	note F_, 1
	octave 2
	note C_, 1
	octave 1
	note A#, 1
	note F_, 1
	octave 2
	note D#, 1
	note C_, 1
	octave 1
	note A#, 1
	octave 2
	note D#, 1
	note C_, 1
	octave 1
	note A#, 1
	octave 2
	note D#, 1
	note C_, 1
	octave 1
	note A#, 1
	octave 2
	note D#, 1
	note C_, 1
	octave 1
	note A#, 1
	octave 2
	note D#, 1
	note C_, 1
	octave 1
	note A#, 1
	note G_, 1
	note F_, 1
	octave 2
	note C_, 1
	octave 1
	note A#, 1
	note F_, 1
	octave 2
	note C_, 1
	octave 1
	note A#, 1
	note F_, 1
	octave 2
	note C_, 1
	octave 1
	note A#, 1
	note F_, 1
	octave 2
	note C_, 1
	octave 1
	note A#, 1
	note F_, 1
	note A_, 1
	note A#, 1
	duty_cycle 2
	octave 2
	note C_, 1
	duty_cycle 3
	note D_, 1
	note_type 6, 12, 8
	note D_, 1
	note_type 12, 12, 8
	note D_, 1
	note D_, 1
	note_type 6, 12, 8
	note D_, 1
	rest 1
	note_type 12, 12, 8
	note D_, 1
	note_type 6, 12, 8
	note D_, 1
	note D_, 1
	octave 1
	note A_, 1
	octave 2
	note C_, 1
	note D_, 1
	note_type 12, 15, 8
	volume_envelope 12, 8
	note D#, 1
	note_type 6, 12, 8
	note D#, 1
	note_type 12, 12, 8
	note D#, 1
	note D#, 1
	note_type 6, 12, 8
	note D#, 1
	rest 1
	note_type 12, 12, 8
	note D#, 1
	note_type 6, 12, 8
	note D#, 1
	note D#, 1
	octave 1
	note A#, 1
	octave 2
	note D_, 1
	note D#, 1
	note_type 12, 12, 8
	note D_, 1
	note_type 6, 12, 8
	note D_, 1
	note_type 12, 12, 8
	note D_, 1
	note D_, 1
	note_type 6, 12, 8
	note D_, 1
	rest 1
	note_type 12, 12, 8
	note D_, 1
	note_type 6, 12, 8
	note D_, 1
	note D_, 1
	octave 1
	note A_, 1
	octave 2
	note C_, 1
	note D_, 1
	note_type 12, 12, 8
	note D#, 1
	note_type 6, 12, 8
	note D#, 1
	note_type 12, 12, 8
	note D#, 1
	note D#, 1
	note_type 6, 12, 8
	note D#, 1
	rest 1
	note_type 12, 12, 8
	note D#, 1
	note_type 6, 12, 8
	note D#, 1
	note D#, 1
	octave 1
	note A#, 1
	octave 2
	note D_, 1
	note D#, 1
	note_type 12, 12, 8
	note D_, 1
	note_type 6, 12, 8
	note D_, 1
	note_type 12, 12, 8
	note D_, 1
	note D_, 1
	note_type 6, 12, 8
	note D_, 1
	rest 1
	note_type 12, 12, 8
	note D_, 1
	note_type 6, 12, 8
	note D_, 1
	note D_, 1
	octave 1
	note A_, 1
	octave 2
	note C_, 1
	note D_, 1
	note_type 12, 12, 8
	note D#, 1
	note_type 6, 12, 8
	note D#, 1
	note_type 12, 12, 8
	note D#, 1
	note D#, 1
	note_type 6, 12, 8
	note D#, 1
	rest 1
	note_type 12, 12, 8
	note D#, 1
	note_type 6, 12, 8
	note D#, 1
	note D#, 1
	octave 1
	note A#, 1
	octave 2
	note D_, 1
	note D#, 1
	note_type 12, 12, 8
	note D_, 1
	note_type 6, 12, 8
	note D_, 1
	note_type 12, 12, 8
	note D_, 1
	note D_, 1
	note_type 6, 12, 8
	note D_, 1
	rest 1
	note_type 12, 12, 8
	note D_, 1
	note_type 6, 12, 8
	note D_, 1
	note D_, 1
	octave 1
	note A_, 1
	octave 2
	note C_, 1
	note D_, 1
	note_type 12, 12, 8
	note D#, 1
	note_type 6, 12, 8
	note D#, 1
	note_type 12, 12, 8
	note D#, 1
	note D#, 1
	note_type 6, 12, 8
	note D#, 1
	rest 1
	note_type 12, 12, 8
	note D#, 1
	note_type 6, 12, 8
	note D#, 1
	note D#, 1
	octave 1
	note A#, 1
	octave 2
	note D_, 1
	note D#, 1
	note_type 6, 15, 8
	volume_envelope 7, 8
	rest 16
	rest 7
	note_type 12, 15, 8
	volume_envelope 7, 8
	rest 1
	note_type 6, 15, 8
	volume_envelope 7, 8
	rest 7
	note_type 4, 15, 8
	volume_envelope 7, 8
	rest 6
	note_type 6, 15, 8
	volume_envelope 7, 8
	rest 16
	rest 14
	note_type 12, 15, 8
	volume_envelope 7, 8
	rest 1
	note_type 6, 15, 8
	volume_envelope 7, 8
	rest 16
	rest 16
	rest 16
	rest 8
	note_type 4, 15, 8
	volume_envelope 7, 8
	rest 6
	note_type 12, 15, 8
	octave 8
	rest 16
	rest 16
	rest 16
	rest 16
	rest 16
	rest 16
	rest 16
	rest 16
	rest 16
	rest 16
	rest 16
	rest 16
	sound_loop 0, .mainLoop

Music_Mewtwo01_Ch2:
	note_type 3, 15, 8
	duty_cycle 3
	octave 3
	volume_envelope 15, 7
	note B_, 1
	note A#, 1
	note A_, 1
	note G#, 1
	octave 4
	note C_, 1
	octave 3
	note B_, 1
	note A#, 1
	note A_, 1
	octave 4
	note C#, 1
	note C_, 1
	octave 3
	note B_, 1
	note A#, 1
	octave 4
	note D_, 1
	note C#, 1
	note C_, 1
	octave 3
	note B_, 1
	octave 4
	note D#, 1
	note D_, 1
	note C#, 1
	note C_, 1
	note E_, 1
	note D#, 1
	note D_, 1
	note C#, 1
	note F_, 1
	note E_, 1
	note D#, 1
	note D_, 1
	note F#, 1
	note F_, 1
	note E_, 1
	note D#, 1
	note F_, 1
	note E_, 1
	note D#, 1
	note D_, 1
	note_type 4, 15, 8
	rest 1
	volume_envelope 15, 7
	octave 3
	vibrato 0, 1, 1
	note A#, 1
	rest 1
	note A#, 1
	rest 1
	note F_, 1
	rest 1
	note C_, 1
	rest 1
	octave 2
	note A#, 1
	octave 3
	rest 1
	note D_, 1
	rest 1
	note B_, 1
	rest 1
	note A_, 1
	rest 1
	octave 4
	note D#, 1
	rest 1
	note A#, 1
	rest 1
	note_type 12, 15, 8
	volume_envelope 15, 7
	note B_, 1
	volume_envelope 12, 7
	note B_, 1
	volume_envelope 10, 7
	note B_, 1
	volume_envelope 9, 7
	note B_, 1
	note_type 6, 15, 8
	octave 2
	volume_envelope 15, 7
	note E_, 1
	octave 3
	note E_, 1
	note_type 12, 15, 8
	octave 4
	volume_envelope 15, 7
	note E_, 11
	octave 3
	note B_, 5
	octave 4
	note E_, 1
	octave 3
	note B_, 1
	note A#, 5
	octave 4
	note E_, 1
	rest 1
	volume_envelope 8, 7
	note E_, 1
	rest 1
	volume_envelope 3, 7
	note E_, 1
	rest 1
	volume_envelope 15, 7
	note_type 6, 15, 7
	note E_, 1
	octave 5
	note E_, 1
	note_type 6, 3, 7
	volume_envelope 15, 7
	octave 4
	note E_, 1
	note_type 1, 3, 7
	rest 3
	note_type 3, 3, 7
	rest 1
	note_type 6, 3, 7
	volume_envelope 4, 7
	note E_, 1
	note_type 6, 3, 7
	volume_envelope 4, 7
	octave 5
	note E_, 1
	note_type 6, 3, 7
	volume_envelope 4, 7
	octave 4
	note E_, 1
	rest 1
	volume_envelope 15, 7
	octave 3
	note B_, 1
	octave 4
	note B_, 1
	octave 3
	note A#, 1
	rest 1
	volume_envelope 4, 7
	note B_, 1
	octave 4
	note B_, 1
	octave 3
	note A#, 1
	rest 1
	note_type 12, 15, 7
	rest 1
	note_type 6, 15, 7
	note B_, 1
	octave 4
	note E_, 1
	note B_, 1
	rest 2
	note_type 3, 15, 7
	volume_envelope 3, 7
	note A#, 1
	note B_, 1
	note A#, 1
	note B_, 1
	note B_, 1
	note A#, 1
	volume_envelope 5, 7
	note B_, 1
	note A#, 1
	note B_, 1
	note A#, 1
	note A#, 1
	note B_, 1
	note A#, 1
	note B_, 1
	note A#, 1
	volume_envelope 8, 7
	note B_, 1
	note A#, 1
	note B_, 1
	note A#, 1
	note B_, 1
	note A#, 1
	note B_, 1
	note A#, 1
	note B_, 1
	note A#, 1
	volume_envelope 10, 7
	note B_, 1
	note A#, 1
	note B_, 1
	note A#, 1
	note B_, 1
	note A#, 1
	note B_, 1
	note A#, 1
	volume_envelope 9, 7
	note B_, 1
	note A#, 1
	note B_, 1
	note A#, 1
	note B_, 1
	note A#, 1
	note B_, 1
	note A#, 1
	volume_envelope 8, 7
	note B_, 1
	note A#, 1
	note B_, 1
	note A#, 1
	note B_, 1
	note A#, 1
	note B_, 1
	note A#, 1
	volume_envelope 7, 7
	note B_, 1
	note A#, 1
	note B_, 1
	note A#, 1
	note B_, 1
	note A#, 1
	note B_, 1
	note A#, 1
	volume_envelope 6, 7
	note B_, 1
	note A#, 1
	note B_, 1
	note A#, 1
	note B_, 1
	note A#, 1
	note B_, 1
	note A#, 1
	volume_envelope 5, 7
	note B_, 1
	note A#, 1
	note B_, 1
	note A#, 1
	volume_envelope 4, 7
	note B_, 1
	note A#, 1
	volume_envelope 3, 7
	note B_, 1
	note A#, 1
	note B_, 1
	note_type 12, 15, 7
	octave 8
.mainLoop:
	octave 3
	vibrato 0, 2, 2
	note B_, 10
	note A_, 2
	octave 4
	note_type 8, 15, 7
	note D_, 2
	note C_, 2
	octave 3
	note B_, 2
	note_type 12, 15, 7
	octave 4
	note D_, 4
	note_type 4, 15, 7
	note G_, 4
	note F_, 4
	note E_, 4
	note_type 6, 15, 7
	note D_, 1
	note E_, 1
	octave 3
	note_type 15, 15, 7
	note A_, 7
	note_type 1, 15, 7
	rest 3
	note_type 12, 15, 7
	rest 2
	note_type 8, 15, 7
	note A#, 2
	note A_, 2
	note A#, 2
	note_type 12, 15, 7
	octave 4
	note D_, 3
	note C_, 3
	octave 3
	note A#, 2
	note A_, 6
	note_type 8, 15, 7
	note A_, 1
	note_type 4, 15, 7
	note G_, 1
	note_type 6, 15, 7
	note A_, 1
	note_type 15, 15, 7
	note E_, 8
	note_type 1, 15, 7
	rest 6
	note_type 12, 15, 7
	rest 2
	note_type 8, 15, 7
	note E_, 2
	note F_, 2
	note G_, 2
	note A_, 2
	note B_, 2
	octave 4
	note C_, 2
	octave 3
	note B_, 2
	note A_, 2
	note G_, 2
	note_type 12, 15, 7
	note A_, 5
	note A_, 1
	octave 4
	note C_, 1
	note G_, 3
	note_type 6, 15, 7
	note F_, 1
	note E_, 1
	note D_, 1
	note C_, 1
	note E_, 1
	note D_, 1
	note C_, 1
	octave 3
	note A#, 1
	octave 4
	note D_, 1
	note C_, 1
	octave 3
	note A#, 1
	note G_, 1
	note_type 13, 15, 7
	note A_, 7
	note_type 1, 15, 7
	rest 5
	note_type 12, 15, 7
	note B_, 3
	octave 4
	note F#, 5
	note C#, 7
	rest 1
	note D#, 4
	note_type 6, 15, 7
	note A#, 4
	note G#, 1
	note F_, 1
	note G#, 1
	note C_, 1
	note_type 12, 15, 7
	note D_, 1
	rest 1
	volume_envelope 8, 7
	note D_, 1
	rest 1
	volume_envelope 4, 7
	note D_, 1
	note_type 6, 6, 7
	volume_envelope 15, 7
	rest 1
	note_type 1, 6, 7
	rest 6
	volume_envelope 4, 7
	note_type 12, 4, 7
	volume_envelope 2, 7
	note D_, 1
	note_type 6, 4, 7
	rest 10
	note_type 12, 4, 7
	rest 4
	note_type 6, 15, 7
	rest 4
	note D_, 1
	octave 5
	note D_, 1
	octave 4
	note G_, 1
	rest 1
	volume_envelope 4, 7
	note D_, 1
	octave 5
	note D_, 1
	octave 4
	note G_, 1
	rest 1
	volume_envelope 15, 7
	octave 3
	note G_, 1
	note_type 6, 4, 7
	volume_envelope 15, 7
	octave 4
	note G_, 1
	note_type 6, 4, 7
	volume_envelope 15, 7
	note D_, 1
	rest 1
	volume_envelope 4, 7
	octave 3
	note G_, 1
	octave 4
	note G_, 1
	note D_, 1
	rest 1
	note_type 12, 4, 7
	rest 6
	volume_envelope 12, 7
	note G_, 3
	vibrato 0, 2, 3
	duty_cycle 3
	note D_, 7
	note G_, 2
	note D_, 2
	note G_, 2
	note G#, 6
	note_type 6, 12, 7
	volume_envelope 15, 7
	note G#, 1
	octave 5
	note G#, 1
	octave 4
	note F_, 1
	note_type 12, 15, 7
	rest 1
	note_type 6, 15, 7
	volume_envelope 4, 7
	note G#, 1
	octave 5
	note G#, 1
	octave 4
	note F_, 1
	note_type 6, 12, 7
	note F_, 1
	octave 5
	note G#, 1
	octave 4
	note G_, 1
	rest 2
	volume_envelope 4, 7
	note F_, 1
	octave 5
	note G#, 1
	octave 4
	note G_, 1
	rest 4
	note_type 12, 12, 7
	note G_, 3
	note D_, 7
	note G_, 2
	note D_, 2
	note G_, 2
	note F_, 6
	note_type 6, 12, 7
	volume_envelope 15, 7
	note F_, 1
	octave 5
	note F_, 1
	note C_, 1
	rest 2
	octave 4
	volume_envelope 4, 7
	note F_, 1
	octave 5
	note F_, 1
	note C_, 1
	octave 4
	volume_envelope 14, 7
	note C_, 1
	octave 5
	note C_, 1
	octave 4
	note F_, 1
	rest 1
	note_type 6, 12, 7
	rest 1
	volume_envelope 4, 7
	note C_, 1
	octave 5
	note C_, 1
	octave 4
	note F_, 1
	note_type 12, 12, 7
	rest 2
	note D#, 8
	note_type 6, 11, 7
	note A#, 8
	note D#, 8
	note_type 12, 11, 7
	note F_, 6
	note_type 6, 11, 7
	volume_envelope 14, 7
	note F_, 1
	octave 5
	note F_, 1
	note C_, 1
	rest 2
	volume_envelope 4, 7
	octave 4
	note F_, 1
	octave 5
	note F_, 1
	note C_, 1
	volume_envelope 14, 7
	octave 4
	note C_, 1
	octave 5
	note C_, 1
	octave 4
	note F_, 1
	rest 2
	volume_envelope 4, 7
	note C_, 1
	octave 5
	note C_, 1
	octave 4
	note F_, 1
	note_type 12, 11, 7
	rest 2
	note D#, 8
	octave 5
	note_type 6, 11, 7
	note C_, 8
	note D_, 8
	note_type 12, 11, 7
	note C_, 8
	note_type 6, 11, 7
	volume_envelope 14, 7
	note C_, 1
	octave 4
	note F_, 1
	note A#, 1
	rest 1
	octave 5
	volume_envelope 4, 7
	note C_, 1
	octave 4
	note F_, 1
	note A#, 1
	rest 1
	volume_envelope 14, 7
	note F_, 1
	note A#, 1
	octave 3
	note A#, 1
	rest 1
	octave 4
	volume_envelope 4, 7
	note F_, 1
	note A#, 1
	octave 3
	note A#, 1
	rest 1
	note_type 12, 11, 7
	note A_, 1
	note D_, 1
	note A_, 1
	note A_, 2
	note G_, 1
	octave 4
	note C_, 3
	octave 3
	note A#, 1
	note A_, 1
	octave 4
	note C_, 1
	octave 3
	note A#, 1
	note A_, 1
	note G_, 1
	note A#, 1
	note A_, 1
	note D_, 1
	note A_, 3
	note G_, 1
	octave 4
	note C_, 3
	note D#, 1
	note D_, 1
	note C_, 1
	note D_, 1
	note C_, 1
	octave 3
	note A#, 1
	note G_, 1
	note A_, 1
	note D_, 1
	note A_, 3
	note G_, 1
	octave 4
	note C_, 3
	octave 3
	note A#, 1
	note A_, 1
	note G_, 1
	note A#, 1
	note A_, 1
	note G_, 1
	note D#, 1
	note D_, 1
	note D#, 1
	note F_, 1
	note G_, 1
	note A_, 1
	note G_, 2
	note D_, 2
	note G_, 4
	note D#, 1
	note C_, 1
	note D#, 3
	note A_, 2
	octave 4
	note D_, 2
	note A_, 2
	note G_, 3
	note F_, 1
	note D#, 3
	rest 1
	octave 3
	note D_, 2
	note A_, 2
	octave 4
	note D_, 2
	note A_, 2
	note A#, 3
	note A_, 1
	note G_, 4
	octave 3
	note D#, 2
	note A_, 2
	octave 4
	note D_, 2
	note A_, 2
	note G_, 3
	note F_, 1
	note D#, 4
	octave 3
	note D_, 2
	note A_, 2
	octave 4
	note D_, 2
	note A_, 2
	octave 5
	note D#, 3
	note D_, 1
	note C_, 2
	octave 4
	note A#, 2
	note A_, 16
	note A_, 16
	note A_, 16
	note A_, 16
	rest 16
	rest 16
	rest 16
	rest 16
	rest 16
	rest 16
	rest 16
	rest 16
	octave 8
	sound_loop 0, .mainLoop

Music_Mewtwo01_Ch3:
	note_type 12, 1, 0
	octave 1
	note B_, 1
	octave 2
	note C_, 1
	note C#, 1
	note D_, 1
	note D#, 1
	note D_, 1
	note C#, 1
	note C_, 1
	note_type 6, 1, 0
	note C#, 1
	note D_, 1
	note D#, 1
	note E_, 1
	note D_, 1
	note D#, 1
	note E_, 1
	note F_, 1
	note D#, 1
	note E_, 1
	note F_, 1
	note F#, 1
	note E_, 1
	note F_, 1
	note F#, 1
	note G_, 1
	note_type 8, 1, 0
	octave 4
	note E_, 1
	note E_, 1
	note E_, 1
	octave 3
	note E_, 1
	note E_, 1
	note E_, 1
	octave 2
	note E_, 1
	note E_, 1
	note E_, 1
	octave 3
	note E_, 1
	note E_, 1
	note E_, 1
	octave 4
	note E_, 1
	note D_, 1
	note E_, 1
	octave 3
	note E_, 1
	note D_, 1
	note E_, 1
	octave 2
	note E_, 1
	note D_, 1
	note E_, 1
	octave 3
	note E_, 1
	note D_, 1
	note E_, 1
	octave 4
	note E_, 1
	note E_, 1
	note E_, 1
	octave 3
	note E_, 1
	note E_, 1
	note E_, 1
	octave 2
	note E_, 1
	note E_, 1
	note E_, 1
	octave 3
	note E_, 1
	note E_, 1
	note E_, 1
	octave 4
	note E_, 1
	note D_, 1
	note E_, 1
	octave 3
	note E_, 1
	note D_, 1
	note E_, 1
	octave 2
	note E_, 1
	note D_, 1
	note E_, 1
	octave 3
	note E_, 1
	note D_, 1
	note E_, 1
	octave 4
	note E_, 1
	note E_, 1
	note E_, 1
	octave 3
	note E_, 1
	note E_, 1
	note E_, 1
	octave 2
	note E_, 1
	note E_, 1
	note E_, 1
	octave 3
	note E_, 1
	note E_, 1
	note E_, 1
	octave 4
	note E_, 1
	note D_, 1
	note E_, 1
	octave 3
	note E_, 1
	note D_, 1
	note E_, 1
	octave 2
	note E_, 1
	note D_, 1
	note E_, 1
	note_type 3, 1, 0
	octave 3
	note D_, 1
	note E_, 1
	note F#, 1
	note G_, 1
	note A_, 1
	note B_, 1
	octave 4
	note C_, 1
	note D_, 1
	note_type 8, 1, 0
	note E_, 1
	note E_, 1
	octave 3
	note E_, 1
	octave 4
	note E_, 1
	note E_, 1
	octave 3
	note E_, 1
	octave 4
	note E_, 1
	note E_, 1
	octave 3
	note E_, 1
	octave 4
	note_type 3, 1, 0
	note D_, 1
	note E_, 1
	note F#, 1
	note G_, 1
	note A_, 1
	note B_, 1
	octave 5
	note C_, 1
	note D_, 1
	note_type 8, 1, 0
	note E_, 1
	note E_, 1
	octave 4
	note E_, 1
	octave 5
	note E_, 1
	note E_, 1
	octave 4
	note E_, 1
	octave 5
	note E_, 1
	note E_, 1
	octave 4
	note E_, 1
	octave 5
	note E_, 1
	note E_, 1
	octave 4
	note E_, 1
	note_type 12, 1, 0
	octave 8
.mainLoop:
	note_type 12, 1, 0
	vibrato 0, 2, 2
	octave 3
	volume_envelope 1, 1
	note A_, 5
	note_type 12, 3, 0
	octave 2
	volume_envelope 1, 1
	note A_, 5
	octave 3
	rest 6
	note F_, 5
	octave 4
	note F_, 5
	octave 3
	rest 6
	note A#, 5
	octave 2
	note A#, 5
	rest 6
	octave 3
	note A_, 2
	note A_, 1
	note A_, 2
	octave 4
	note A_, 5
	octave 3
	rest 6
	note F_, 5
	octave 2
	note F_, 5
	octave 3
	rest 6
	note A#, 2
	note A#, 1
	note A#, 2
	octave 4
	note A#, 1
	note A#, 4
	octave 3
	rest 6
	note_type 6, 1, 0
	volume_envelope 3, 4
	note E_, 12
	note_type 5, 1, 0
	volume_envelope 3, 4
	note G#, 12
	note_type 4, 3, 7
	volume_envelope 3, 4
	note B_, 9
	note_type 12, 3, 7
	volume_envelope 3, 4
	note B_, 2
	octave 4
	note_type 7, 1, 0
	volume_envelope 3, 4
	note E_, 12
	note_type 1, 1, 0
	rest 5
	note_type 7, 1, 0
	rest 1
	note_type 4, 1, 0
	volume_envelope 3, 4
	note G#, 3
	note G#, 1
	note G#, 8
	note_type 2, 3, 4
	note D#, 12
	note_type 6, 1, 0
	volume_envelope 3, 4
	note D#, 1
	octave 3
	note A#, 1
	note D#, 1
	rest 1
	note_type 12, 3, 4
	octave 4
	note E_, 1
	note A_, 1
	note G_, 1
	note E_, 1
	note_type 12, 1, 0
	volume_envelope 3, 4
	note A_, 1
	note G_, 1
	note E_, 1
	note A_, 1
	note G_, 1
	note E_, 1
	note A_, 1
	note G_, 1
	note E_, 1
	note A_, 1
	note G_, 1
	note E_, 1
	note A_, 1
	note G_, 1
	note E_, 1
	note A_, 1
	note G_, 1
	note E_, 1
	note A_, 1
	note G_, 1
	note E_, 1
	note A_, 1
	note G_, 1
	note E_, 1
	note A_, 1
	note G_, 1
	note E_, 1
	note A_, 1
	note G_, 3
	note D_, 7
	note G_, 2
	note D_, 2
	note G_, 2
	note G#, 2
	note F_, 1
	note A#, 1
	note G#, 1
	note F_, 1
	note A#, 1
	note G#, 1
	note F_, 1
	note A#, 1
	note G#, 1
	note F_, 1
	note A#, 1
	note G#, 1
	note F_, 1
	note A#, 1
	note G_, 1
	note G_, 1
	note G_, 1
	note D_, 1
	note D_, 1
	note D_, 1
	note D_, 1
	note D_, 1
	note D_, 1
	note D_, 1
	note G_, 1
	note G_, 1
	note D_, 1
	note D_, 1
	note G_, 1
	note G_, 1
	note F_, 1
	octave 5
	note C_, 1
	octave 4
	note A#, 1
	note F_, 1
	octave 5
	note C_, 1
	octave 4
	note A#, 1
	note F_, 1
	octave 5
	note C_, 1
	octave 4
	note A#, 1
	note F_, 1
	octave 5
	note C_, 1
	octave 4
	note A#, 1
	note F_, 1
	octave 5
	note C_, 1
	octave 4
	note A#, 1
	note F_, 1
	note D#, 8
	note A#, 4
	note D#, 4
	note F_, 1
	octave 5
	note C_, 1
	octave 4
	note A#, 1
	note F_, 1
	octave 5
	note C_, 1
	octave 4
	note A#, 1
	note F_, 1
	octave 5
	note C_, 1
	octave 4
	note A#, 1
	note F_, 1
	octave 5
	note C_, 1
	octave 4
	note A#, 1
	note F_, 1
	octave 5
	note C_, 1
	octave 4
	note A#, 1
	note F_, 1
	note D#, 8
	octave 5
	note C_, 4
	note D_, 4
	note C_, 1
	octave 4
	note A#, 1
	note F_, 1
	octave 5
	note C_, 1
	octave 4
	note A#, 1
	note F_, 1
	octave 5
	note C_, 1
	octave 4
	note A#, 1
	note_type 6, 3, 4
	octave 3
	volume_envelope 3, 3
	note C_, 1
	note C_, 1
	note D_, 1
	note D#, 1
	note F_, 1
	note G_, 1
	note A_, 1
	note A#, 1
	octave 4
	note C_, 1
	note D_, 1
	note F_, 1
	note D#, 1
	note D_, 1
	note C_, 1
	octave 3
	note A#, 1
	octave 4
	note D_, 1
	octave 3
	note A_, 1
	note_type 6, 1, 2
	octave 4
	volume_envelope 3, 3
	note D_, 1
	note C_, 1
	note_type 6, 3, 4
	volume_envelope 3, 3
	note F_, 1
	note D#, 1
	note D_, 1
	note C_, 1
	note D#, 1
	note_type 6, 3, 4
	volume_envelope 3, 3
	note D_, 1
	note C_, 1
	note_type 6, 1, 2
	octave 3
	volume_envelope 3, 3
	note A#, 1
	note_type 6, 1, 2
	volume_envelope 3, 3
	note A_, 1
	octave 4
	note C_, 1
	octave 3
	note G_, 1
	note A#, 1
	note G_, 1
	note D#, 1
	note F_, 1
	note G_, 1
	note_type 6, 3, 4
	volume_envelope 3, 3
	note A_, 1
	note A#, 1
	octave 4
	note C_, 1
	note D_, 1
	note D#, 1
	note F_, 1
	note D#, 1
	note_type 6, 1, 2
	volume_envelope 3, 3
	note D_, 1
	note_type 6, 1, 2
	volume_envelope 3, 3
	note C_, 1
	note D#, 1
	note D#, 1
	note_type 6, 1, 2
	volume_envelope 3, 3
	note D#, 1
	note D#, 1
	note D_, 1
	note D#, 1
	note C_, 1
	note_type 6, 3, 4
	volume_envelope 3, 3
	note A_, 1
	rest 1
	note A_, 1
	note_type 1, 1, 2
	rest 2
	note_type 4, 1, 2
	rest 1
	note_type 6, 1, 2
	volume_envelope 3, 3
	note A_, 1
	note_type 3, 3, 4
	rest 2
	volume_envelope 1, 2
	note_type 6, 1, 2
	volume_envelope 3, 3
	note A_, 1
	note_type 6, 1, 2
	volume_envelope 3, 3
	note C_, 1
	note_type 6, 1, 2
	volume_envelope 3, 3
	note D_, 1
	note D_, 1
	note_type 6, 1, 2
	volume_envelope 3, 3
	note C_, 1
	note_type 6, 1, 2
	volume_envelope 3, 3
	note G_, 1
	note_type 6, 1, 2
	volume_envelope 3, 3
	note A_, 1
	note A#, 1
	note_type 6, 1, 2
	volume_envelope 3, 3
	note G_, 1
	note_type 6, 1, 2
	volume_envelope 3, 3
	note D#, 1
	note_type 6, 3, 4
	volume_envelope 3, 3
	note A#, 1
	octave 5
	note D_, 1
	note C_, 1
	note_type 6, 1, 2
	octave 4
	volume_envelope 3, 3
	note A_, 1
	note_type 6, 1, 2
	volume_envelope 3, 3
	note A_, 1
	note_type 6, 3, 4
	volume_envelope 3, 3
	note G_, 1
	note F_, 1
	note_type 6, 1, 2
	volume_envelope 3, 3
	note D#, 1
	note_type 6, 1, 2
	volume_envelope 3, 3
	note C_, 1
	note D_, 1
	note_type 6, 1, 2
	volume_envelope 3, 3
	note D#, 1
	octave 3
	note_type 6, 1, 2
	volume_envelope 3, 3
	note A_, 1
	note A#, 1
	note G_, 1
	note_type 6, 1, 2
	volume_envelope 3, 3
	note F_, 1
	note_type 6, 1, 2
	volume_envelope 3, 3
	note D#, 1
	note_type 6, 3, 4
	volume_envelope 3, 3
	note G_, 1
	note F_, 1
	note D#, 1
	note_type 6, 1, 2
	volume_envelope 3, 3
	note D_, 1
	note_type 6, 1, 2
	volume_envelope 3, 3
	note F_, 1
	note_type 6, 1, 2
	volume_envelope 3, 3
	note D#, 1
	note C_, 1
	note_type 6, 1, 2
	volume_envelope 3, 3
	note F_, 1
	note G_, 1
	note C_, 1
	note D_, 1
	note D#, 1
	note F_, 1
	note G_, 1
	note A_, 1
	note A#, 1
	note A_, 1
	note G_, 1
	note F_, 1
	note_type 6, 1, 2
	volume_envelope 3, 3
	note D#, 1
	note C_, 1
	note_type 6, 1, 2
	volume_envelope 3, 3
	note D#, 1
	note D_, 1
	note_type 6, 1, 2
	volume_envelope 3, 3
	note C_, 1
	note C_, 1
	note_type 6, 1, 2
	volume_envelope 3, 3
	note D#, 1
	note C_, 1
	note_type 6, 1, 2
	volume_envelope 3, 3
	note D#, 1
	note C_, 1
	note_type 6, 1, 2
	volume_envelope 3, 3
	note D_, 1
	octave 2
	note A#, 1
	octave 3
	note_type 6, 1, 2
	volume_envelope 3, 3
	note D_, 1
	octave 2
	note A#, 1
	octave 3
	note_type 6, 1, 2
	volume_envelope 3, 3
	note D_, 1
	octave 2
	note A#, 1
	octave 3
	note_type 6, 1, 2
	volume_envelope 3, 3
	note D_, 1
	octave 2
	note A#, 1
	note_type 6, 1, 2
	octave 3
	volume_envelope 3, 3
	note D_, 1
	octave 2
	note A#, 1
	octave 3
	note D_, 1
	note F_, 1
	note_type 6, 1, 2
	volume_envelope 3, 3
	note D_, 1
	note F_, 1
	note D_, 1
	note F_, 1
	note A_, 1
	note D_, 1
	octave 2
	note A#, 1
	note A#, 1
	octave 3
	note G_, 1
	note G_, 1
	note A#, 1
	note A_, 1
	note G_, 1
	note F_, 1
	note F_, 1
	note D_, 1
	octave 2
	note A#, 1
	note A#, 1
	octave 3
	note D#, 1
	octave 2
	note A#, 1
	octave 3
	note D_, 1
	octave 2
	note A#, 1
	octave 3
	note D_, 1
	note A_, 1
	rest 1
	note F#, 1
	note_type 12, 1, 2
	volume_envelope 3, 3
	note A_, 1
	note_type 6, 1, 2
	volume_envelope 3, 3
	note D_, 1
	note F_, 1
	note_type 6, 1, 2
	volume_envelope 3, 3
	note A_, 1
	note F_, 1
	note A_, 1
	note G_, 1
	note F_, 1
	note D_, 1
	note D#, 1
	note F_, 1
	note G_, 1
	note A_, 1
	note A#, 1
	octave 4
	note C_, 1
	note D_, 1
	note D#, 1
	note D#, 1
	note D_, 1
	note C_, 1
	note D#, 1
	note D_, 1
	note C_, 1
	octave 3
	note A#, 1
	octave 4
	note D#, 1
	note_type 4, 1, 2
	volume_envelope 3, 3
	note D_, 1
	note D#, 1
	note D_, 1
	note D#, 1
	note D_, 1
	note D#, 1
	note_type 6, 1, 2
	volume_envelope 3, 3
	note D_, 1
	note C_, 1
	octave 3
	note A#, 1
	note A_, 1
	octave 4
	note D_, 1
	octave 3
	note A_, 1
	note F_, 1
	note D#, 1
	note D_, 1
	note C_, 1
	note D#, 1
	note D_, 1
	note_type 6, 1, 2
	volume_envelope 3, 3
	note D#, 1
	note G_, 1
	octave 2
	note A#, 1
	octave 3
	note G_, 1
	note D#, 1
	note G_, 1
	octave 2
	note A#, 1
	octave 3
	note G_, 1
	note A#, 1
	note A_, 1
	note G_, 1
	note F_, 1
	note G_, 1
	note F_, 1
	note D#, 1
	note G_, 1
	note D_, 1
	note C_, 1
	note_type 12, 1, 2
	volume_envelope 3, 3
	note D_, 1
	note_type 6, 1, 2
	volume_envelope 3, 3
	note C_, 1
	octave 2
	note A_, 1
	octave 3
	note D_, 1
	note C_, 1
	note D_, 1
	octave 2
	note A_, 1
	octave 3
	note D_, 1
	octave 2
	note A_, 1
	octave 3
	note F_, 1
	note G_, 1
	note A_, 1
	note A#, 1
	octave 4
	note C_, 1
	octave 3
	note A#, 1
	note A_, 1
	note A#, 1
	octave 4
	note D#, 1
	note D_, 1
	note C_, 1
	octave 3
	note A#, 1
	note A#, 1
	note A_, 1
	note G_, 1
	note A#, 1
	note G_, 1
	note G_, 1
	note F_, 1
	note D#, 1
	note G_, 1
	note A_, 1
	note A#, 1
	note A_, 1
	note F_, 1
	note G_, 1
	note F_, 1
	note D#, 1
	note G_, 1
	note A_, 1
	octave 4
	note D#, 1
	note F_, 1
	note D#, 1
	note D_, 1
	note C_, 1
	note D#, 1
	octave 3
	note D#, 1
	note A#, 1
	note G_, 1
	note A#, 1
	octave 4
	note D#, 1
	note D_, 1
	note C_, 1
	note D#, 1
	note D#, 1
	note D_, 1
	note C_, 1
	octave 3
	note A#, 1
	note_type 4, 1, 2
	volume_envelope 3, 3
	note A#, 1
	octave 4
	note C_, 1
	note D_, 1
	note D#, 1
	note F_, 1
	note G_, 1
	note_type 12, 1, 2
	rest 16
	rest 16
	rest 16
	rest 16
	rest 16
	rest 16
	rest 16
	rest 16
	rest 16
	rest 16
	rest 16
	rest 16
	octave 8
	sound_loop 0, .mainLoop

Music_Mewtwo01_Ch4:
	toggle_noise 0
	drum_speed 12
	rest 16
	rest 16
	rest 16
	rest 16
	rest 16
	octave 8
.mainLoop:
	rest 16
	rest 16
	rest 16
	rest 16
	rest 16
	rest 16
	rest 16
	rest 16
	rest 16
	rest 16
	rest 16
	rest 16
	rest 16
	rest 16
	rest 16
	rest 16
	rest 16
	rest 16
	rest 16
	rest 16
	rest 16
	rest 16
	rest 16
	rest 16
	rest 16
	rest 16
	rest 16
	rest 16
	rest 16
	rest 16
	rest 16
	rest 16
	rest 16
	rest 16
	rest 16
	rest 16
	rest 16
	rest 16
	sound_loop 0, .mainLoop
